/* XPM */
static char *_2496_25500fbd4e39c269ca4b32845db10583e04f081e2bd0a21ccae629e7310854c8[] = {
/* columns rows colors chars-per-pixel */
"32 32 88 1 ",
"  c #5C2E72",
". c #77346F",
"X c #79336F",
"o c #BA1C49",
"O c #86265F",
"+ c #9B2357",
"@ c #962459",
"# c #992458",
"$ c #B6224F",
"% c #A42153",
"& c #A52D5D",
"* c #14368C",
"= c #1C378B",
"- c #17398E",
"; c #193A8E",
": c #1C3E91",
"> c #2C3585",
", c #443C85",
"< c #1F4092",
"1 c #234394",
"2 c #294796",
"3 c #2A4997",
"4 c #2E4C99",
"5 c #304E9A",
"6 c #35529D",
"7 c #3A569F",
"8 c #3E5AA1",
"9 c #425DA3",
"0 c #4A64A7",
"q c #4D67A8",
"w c #4F68A9",
"e c #5A63A1",
"r c #576EA7",
"t c #546DAC",
"y c #5770AD",
"u c #5B73AF",
"i c #5F76B1",
"p c #6077B1",
"a c #647AB3",
"s c #697FB6",
"d c #B0678E",
"f c #6B81B7",
"g c #6D82B8",
"h c #7387BB",
"j c #7589BC",
"k c #7A8DBE",
"l c #7F91C1",
"z c #C889A5",
"x c #E996A8",
"c c #8193C2",
"v c #8698C4",
"b c #8A9BC6",
"n c #8F9FC8",
"m c #9C9CC2",
"M c #96A5CC",
"N c #98A7CD",
"B c #9BAACE",
"V c #9EACD0",
"C c #A6B3D4",
"Z c #ABB7D6",
"A c #AEB9D7",
"S c #AFBBD8",
"D c #B3BEDA",
"F c #B6C0DB",
"G c #BCC6DE",
"H c #BEC8DF",
"J c #C5C7CB",
"K c #C3CBE1",
"L c #C7D2E6",
"P c #CBD2E5",
"I c #C8D4E8",
"U c #D0D7E8",
"Y c #D5DBEA",
"T c #DADFED",
"R c #F8DDE2",
"E c #DDE2EE",
"W c #E0E2E9",
"Q c #EEEDED",
"! c #E2E6F1",
"~ c #E6E9F3",
"^ c #EAEDF5",
"/ c #EEF1F7",
"( c #EAF0F8",
") c #F0F2F7",
"_ c #F3F4F9",
"` c #F7F8FB",
"' c #FEFEFE",
"] c None",
/* pixels */
"]]]]]]]]]]]]]------]]]]]]]]]]]]]",
"]]]]]]]]]]---*******--]]]]]]]]]]",
"]]]]]]]]--**3thvMbjt4-*-]]]]]]]]",
"]]]]]]]-*-7MY_'''''_TN9---]]]]]]",
"]]]]]--*1l!'''_!E!/'''~v1*-]]]]]",
"]]]]--*6S''`Kk06459sS)''C1--]]]]",
"]]]]-*5G''Ta1****-**:tL'Y3--]]]]",
"]]]--1Z''G7***-------*5ky----]]]",
"]]--*j''K4*:1:<:::-*---**-----]]",
"]]-*6E'E9**jKKKKKGBt----------]]",
"]---c''k*-*N''''''')k----------]",
"]--1L'Y4--*M'UgffjK'~9*--------]",
"]-*9/'M---*N'D-***6E'k**---:--;]",
"]-*a''i*--*N'F-***1P'l**--------",
"--*c'/9*---M'G1112g_'i*-----;---",
"--*b'^7---*N'/PPLU_'G2----------",
"--*b'^7*--*N''''''^V6*----------",
"--*k'_0*--*N'PtyK'Y7*= >--------",
"]-*y''g*--*N'D-*9Y'H4*##=------]",
"]-*7!'Z---*N'F:-*w!'D2#oe4-----]",
"]--:D'!7*--M'D---*i^'C&omC:;---]",
"]]-*p''B--*7y9----*k_'x$mI,>---]",
"]]--2G')i*-***------v'`zMP.O--]]",
"]]--*t^'Ew*---------:B')TL.%--]]",
"]]]---l''Ei-*-------*2K''PX#-]]]",
"]]]]--:b''/B9:*****;9BWQ'(d%]]]]",
"]]]]]-*:k^''^DcauacF~'`JE'R]]]]]",
"]]]]]]-*-wF_''''''''''UrqE]]]]]]",
"]]]]]]]--*1tVU^_`_/TSf4*-]]]]]]]",
"]]]]]]]]]-**-38wtq73-**-]]]]]]]]",
"]]]]]]]]]]]---****---]]]]]]]]]]]",
"]]]]]]]]]]]]]]]]]]]]]]]]]]]]]]]]"
};
