/* XPM */
static char *_9067_ffbf7ffb323815b2906e3c0876322b9dc22fb65898b6c83ff195dc4900902ca7[] = {
/* columns rows colors chars-per-pixel */
"16 16 130 2 ",
"   c #7C3C75",
".  c #872760",
"X  c #9B4D7C",
"o  c #BC587D",
"O  c #0F328A",
"+  c #0F338A",
"@  c #10338A",
"#  c #10338B",
"$  c #11348B",
"%  c #12348B",
"&  c #12358C",
"*  c #13358C",
"=  c #13368C",
"-  c #14368C",
";  c #14378D",
":  c #15378D",
">  c #15388D",
",  c #17388D",
"<  c #15388E",
"1  c #16388E",
"2  c #17398E",
"3  c #173B8F",
"4  c #18398E",
"5  c #183A8E",
"6  c #183A8F",
"7  c #193B8F",
"8  c #1A3B8F",
"9  c #1A3C8F",
"0  c #1B3D90",
"q  c #1D3E91",
"w  c #1E3F91",
"e  c #1E3F92",
"r  c #2E3483",
"t  c #243688",
"y  c #1F4092",
"u  c #214293",
"i  c #234394",
"p  c #254595",
"a  c #2A4493",
"s  c #284796",
"d  c #2F4E9A",
"f  c #374590",
"g  c #3D4992",
"h  c #314F9A",
"j  c #35539D",
"k  c #36539D",
"l  c #39569E",
"z  c #3B589F",
"x  c #3C59A0",
"c  c #425DA3",
"v  c #435FA3",
"b  c #4964A6",
"n  c #4A64A7",
"m  c #516AAA",
"M  c #556EAC",
"N  c #576FAD",
"B  c #5A72AF",
"V  c #5B73AF",
"C  c #5C74B0",
"Z  c #5D74B0",
"A  c #5D75B0",
"S  c #606BA6",
"D  c #6077B1",
"F  c #6077B2",
"G  c #6178B2",
"H  c #6279B2",
"J  c #677DB5",
"K  c #6C82B7",
"L  c #6D82B8",
"P  c #7186BA",
"I  c #7388BB",
"U  c #768ABC",
"Y  c #788CBD",
"T  c #7C90C0",
"R  c #7E91C0",
"E  c #9B92BA",
"W  c #8395C2",
"Q  c #8496C3",
"!  c #8799C5",
"~  c #889AC5",
"^  c #8C9DC7",
"/  c #8E9EC8",
"(  c #90A0C9",
")  c #92A2CA",
"_  c #97A6CC",
"`  c #98A7CD",
"'  c #9AA8CE",
"]  c #A0ADD0",
"[  c #A1AFD1",
"{  c #A6B3D4",
"}  c #AAB7D6",
"|  c #ACB8D7",
" . c #ADB9D7",
".. c #B0BAD2",
"X. c #BEBBD4",
"o. c #B0BBD8",
"O. c #B2BDDA",
"+. c #B3BEDA",
"@. c #B5BFDB",
"#. c #B5C0DB",
"$. c #B7C2DC",
"%. c #BBC3DA",
"&. c #BCC5DE",
"*. c #BEC7DF",
"=. c #C7CFE4",
"-. c #C8D0E4",
";. c #CAD2E5",
":. c #CBD2E5",
">. c #CBD2E6",
",. c #CDD4E6",
"<. c #DBD8E6",
"1. c #D2D9E9",
"2. c #D9DFED",
"3. c #DADFED",
"4. c #E7D5E0",
"5. c #DBE0ED",
"6. c #DCE1EE",
"7. c #E8E7EF",
"8. c #E4E8EF",
"9. c #E0E5F0",
"0. c #E2E6F1",
"q. c #E3E7F1",
"w. c #E4E8F2",
"e. c #E5E8F2",
"r. c #E7EAF3",
"t. c #E8EBF4",
"y. c #E8ECF4",
"u. c #E9ECF4",
"i. c #EBEEF5",
"p. c None",
/* pixels */
"p.p.p.p.p.$ - 0 w 5 @ p.p.p.p.p.",
"p.p.p.p.7 n ( $.*.} I d p.p.p.p.",
"p.p.; p ) r.-._ ^ { 5.,.b = p.p.",
"p.p.y [ w.K w # + = j ` A ; p.p.",
"p.- L y.Z h I Y U m 8 2 4 2 2 p.",
"p.i =.] - D i.+.O.2.P : 2 2 2 p.",
"* c e.M @ H ;.u & / @.8 2 2 2 2 ",
"& N 0.l $ G 9.Q R >.^ < 2 2 2 2 ",
"& M 0.z $ F t. .u.o.a r , 2 2 2 ",
"= x q.C O H :.i J 1.S . g 3 2 2 ",
"p.y &.| 6 v W e 2 T <.o E f , p.",
"p.= V t.P > ; 2 1 9 / 4.X.  t p.",
"p.p.8 ~ u.! d 7 2 e B 8.7.X p.p.",
"p.p.p.q U 6.3.#.| =.u...%.p.p.p.",
"p.p.p.p.: k P ' [ ^ A s p.p.p.p.",
"p.p.p.p.p.p.# - : % p.p.p.p.p.p."
};
