/* XPM */
static char *_1888_32249d7877f007a7ea16e91d6745f462346f19be34b4faa26717c4430c921180[] = {
/* columns rows colors chars-per-pixel */
"64 64 107 2 ",
"   c #5E2B6E",
".  c #41327D",
"X  c #632D6F",
"o  c #692C6C",
"O  c #732A68",
"+  c #612D70",
"@  c #733C78",
"#  c #DC173B",
"$  c #DE193C",
"%  c #E0183B",
"&  c #AC1E4E",
"*  c #BA1F4B",
"=  c #A91F50",
"-  c #8D265D",
";  c #B0204F",
":  c #A02356",
">  c #AA2151",
",  c #DF1F41",
"<  c #DC2547",
"1  c #DD2F50",
"2  c #C5375E",
"3  c #0F328A",
"4  c #14378D",
"5  c #17398E",
"6  c #193A8E",
"7  c #133A90",
"8  c #1C3D90",
"9  c #283687",
"0  c #21378A",
"q  c #21388A",
"w  c #3A3380",
"e  c #1F4092",
"r  c #234394",
"t  c #294594",
"y  c #294996",
"u  c #2D4C99",
"i  c #314F9A",
"p  c #3A4F98",
"a  c #34529C",
"s  c #3A559E",
"d  c #3D59A0",
"f  c #45569B",
"g  c #445C98",
"h  c #435EA3",
"j  c #4661A5",
"k  c #4963A6",
"l  c #4D67A8",
"z  c #4F69A9",
"x  c #546CAB",
"c  c #5A72AE",
"v  c #5D74B0",
"b  c #647AB3",
"n  c #6A7FB6",
"m  c #6C81B7",
"M  c #6F84B9",
"N  c #7185BA",
"B  c #7589BC",
"V  c #7B8EBF",
"C  c #7C90BF",
"Z  c #7F91C0",
"A  c #BB80A1",
"S  c #A6A9B0",
"D  c #BDBDBE",
"F  c #EF899A",
"G  c #EF98A7",
"H  c #DAA9BD",
"J  c #8294C2",
"K  c #8799C5",
"L  c #8A9BC6",
"P  c #8F9FC8",
"I  c #94A3CB",
"U  c #98A7CD",
"Y  c #9BA9CE",
"T  c #9FADD0",
"R  c #AAB3CC",
"E  c #A1AED1",
"W  c #A6B3D4",
"Q  c #A9B5D5",
"!  c #ADB9D7",
"~  c #AFBCD9",
"^  c #B2BDD9",
"/  c #F3B5C1",
"(  c #BEC5D6",
")  c #B6C1DB",
"_  c #BAC3DD",
"`  c #BEC8DF",
"'  c #BFC8E0",
"]  c gray80",
"[  c #CAC9DE",
"{  c #D2D1D1",
"}  c #C5CDE2",
"|  c #CCD3E6",
" . c #D1D7E8",
".. c #D5DBEA",
"X. c #D9DEEC",
"o. c #DDE2EE",
"O. c #E3E3E3",
"+. c #E2E6F1",
"@. c #E5E9F2",
"#. c #EAEDF5",
"$. c #EEF1F7",
"%. c #F0F2F7",
"&. c #FFF5F5",
"*. c #F3F5F9",
"=. c #F7F8FB",
"-. c #FFFFFF",
";. c None",
/* pixels */
";.;.;.;.;.;.;.;.;.;.;.;.;.;.;.;.;.;.;.;.;.;.;.;.;.;.;.;.;.;.;.5 5 5 ;.;.;.;.;.;.;.;.;.;.;.;.;.;.;.;.;.;.;.;.;.;.;.;.;.;.;.;.;.;.",
";.;.;.;.;.;.;.;.;.;.;.;.;.;.;.;.;.;.;.;.;.;.;.;.5 5 5 5 5 5 5 5 5 5 5 5 5 5 5 5 ;.;.;.;.;.;.;.;.;.;.;.;.;.;.;.;.;.;.;.;.;.;.;.;.",
";.;.;.;.;.;.;.;.;.;.;.;.;.;.;.;.;.;.;.;.;.5 5 5 5 5 5 5 5 5 5 5 5 5 5 5 5 5 5 5 5 5 5 ;.;.;.;.;.;.;.;.;.;.;.;.;.;.;.;.;.;.;.;.;.",
";.;.;.;.;.;.;.;.;.;.;.;.;.;.;.;.;.;.;.5 5 5 5 5 5 5 5 5 5 4 5 4 4 5 4 5 5 5 5 5 5 5 5 5 5 ;.;.;.;.;.;.;.;.;.;.;.;.;.;.;.;.;.;.;.",
";.;.;.;.;.;.;.;.;.;.;.;.;.;.;.;.;.5 5 5 5 5 5 5 5 5 4 4 5 r u a s s a u t 8 4 4 5 5 5 5 5 5 5 ;.;.;.;.;.;.;.;.;.;.;.;.;.;.;.;.;.",
";.;.;.;.;.;.;.;.;.;.;.;.;.;.;.5 5 5 5 5 5 5 5 4 5 a c L ^ | o.@.#.#.@.o.| ) I b s 8 4 5 5 5 5 5 5 ;.;.;.;.;.;.;.;.;.;.;.;.;.;.;.",
";.;.;.;.;.;.;.;.;.;.;.;.;.;.5 5 5 5 5 5 5 4 t v W o.=.-.-.-.-.-.-.-.-.-.-.-.-.-.@.) N u 4 5 5 5 5 5 ;.;.;.;.;.;.;.;.;.;.;.;.;.;.",
";.;.;.;.;.;.;.;.;.;.;.;.5 5 5 5 5 5 5 4 r M } =.-.-.-.-.-.-.-.-.-.-.-.-.-.-.-.-.-.-.-...J y 4 5 5 5 5 5 ;.;.;.;.;.;.;.;.;.;.;.;.",
";.;.;.;.;.;.;.;.;.;.;.5 5 5 5 5 5 4 5 c } =.-.-.-.-.-.-.-.-.-.-.-.-.-.-.-.-.-.-.-.-.-.-.-.| b 8 5 5 5 5 5 ;.;.;.;.;.;.;.;.;.;.;.",
";.;.;.;.;.;.;.;.;.;.5 5 5 5 5 5 4 y I *.-.-.-.-.-.-.-.-.-.=.#.o.....o.@.*.=.-.-.-.-.-.-.-.-.*.Y u 4 5 5 5 5 ;.;.;.;.;.;.;.;.;.;.",
";.;.;.;.;.;.;.;.;.5 5 5 5 5 5 5 h } -.-.-.-.-.-.-.-.o.Q B z s u y y u a j b P } %.-.-.-.-.-.-.-.} h 5 5 5 5 5 ;.;.;.;.;.;.;.;.;.",
";.;.;.;.;.;.;.;.5 5 5 5 5 5 4 x o.-.-.-.-.-.-.=.} M a 5 4 4 4 5 4 4 5 4 4 4 4 r l Y @.-.-.-.-.-.-.) r 5 5 5 5 5 ;.;.;.;.;.;.;.;.",
";.;.;.;.;.;.;.;.5 5 5 5 5 4 c @.-.-.-.-.-.-. .n r 4 5 5 5 5 5 5 5 5 5 5 5 5 5 5 4 5 h ! =.-.-.-.-.+.i 5 5 5 5 5 5 ;.;.;.;.;.;.;.",
";.;.;.;.;.;.;.5 5 5 5 5 4 x +.-.-.-.-.-.=.I u 4 4 5 5 5 5 5 5 5 5 5 5 5 5 5 5 5 5 5 4 8 N @.-.-.-.` r 4 5 5 5 5 5 ;.;.;.;.;.;.;.",
";.;.;.;.;.;.5 5 5 5 5 4 d ..-.-.-.-.-.@.n 5 4 5 5 5 5 5 5 5 5 5 5 5 5 5 5 5 5 5 5 5 5 4 4 x _ +.` j 4 5 5 5 5 5 5 5 ;.;.;.;.;.;.",
";.;.;.;.;.5 5 5 5 5 5 y _ -.-.-.-.-.o.x 4 5 5 5 5 5 5 5 5 5 5 5 5 5 5 5 5 5 5 5 5 5 5 5 5 4 r i r 4 5 5 5 5 5 5 5 5 5 ;.;.;.;.;.",
";.;.;.;.;.5 5 5 5 5 5 K -.-.-.-.-.o.z 4 5 5 5 5 5 5 5 5 5 5 5 5 5 5 5 5 5 5 5 5 5 5 5 5 5 5 5 5 5 5 5 5 5 5 5 5 5 5 5 ;.;.;.;.;.",
";.;.;.;.5 5 5 5 5 5 k #.-.-.-.-.$.v 4 5 5 5 5 4 4 4 4 4 4 4 5 4 4 5 4 4 4 4 5 5 5 5 5 5 5 5 5 5 5 5 5 5 5 5 5 5 5 5 5 5 ;.;.;.;.",
";.;.;.;.5 5 5 5 5 8 ~ -.-.-.-.-.Z 4 5 5 5 4 i I Y Y Y U U I I I I I I J b d 8 4 5 5 5 5 5 5 5 5 5 5 5 5 5 5 5 5 5 5 5 5 ;.;.;.;.",
";.;.;.5 5 5 5 5 4 x *.-.-.-.-.^ r 5 5 5 5 4 h $.-.-.-.-.-.-.-.-.-.-.-.-.-.@.Q k 5 5 5 5 5 5 5 5 5 5 5 5 5 5 5 5 5 5 5 5 5 ;.;.;.",
";.;.;.5 5 5 5 5 8 ~ -.-.-.-.#.j 4 5 5 5 5 5 h $.-.-.-.-.-.-.-.-.-.-.-.-.-.-.-.@.M 5 4 5 5 5 5 5 5 5 5 5 5 5 5 5 5 5 5 5 5 ;.;.;.",
";.;.;.5 5 5 5 5 h #.-.-.-.-.I 5 5 5 5 5 5 4 h $.-.-.-.-.-.-.-.-.-.-.-.-.-.-.-.-.%.b 4 5 5 5 5 5 5 5 5 5 5 5 5 5 6 5 5 5 5 5 ;.;.",
";.;.5 5 5 5 5 4 L -.-.-.-.@.h 4 5 5 5 5 5 4 h %.-.-.-...~ ^ ^ ^ ^ ^ ^ | *.-.-.-.-...i 5 5 5 5 5 5 5 5 5 5 5 5 5 5 5 5 5 5 5 ;.;.",
";.;.5 5 5 5 4 r } -.-.-.-.W 5 5 5 5 5 5 5 5 h %.-.-.-.V 5 5 6 5 5 5 5 r c  .-.-.-.-.B 4 5 5 5 5 5 5 5 5 5 5 5 5 5 5 5 5 5 5 ;.;.",
";.;.5 5 5 5 4 h #.-.-.-.=.v 4 5 5 5 5 5 5 4 h %.-.-.-.V 4 5 5 5 5 5 5 5 4 x #.-.-.-.^ 8 5 5 5 5 5 5 6 5 5 5 5 5 5 5 5 6 5 5 ;.;.",
";.;.5 5 5 5 4 m -.-.-.-.o.u 5 5 5 5 5 5 5 4 h $.-.-.-.V 4 5 5 5 5 5 5 5 5 8 _ -.-.-. .y 5 5 5 5 5 5 5 5 5 5 5 5 5 5 5 5 5 5 5 ;.",
";.5 5 5 5 5 4 U -.-.-.-.! 6 5 5 5 5 5 5 5 4 h $.-.-.-.V 4 5 5 5 5 5 5 5 5 5 E -.-.-...y 4 5 5 5 5 5 5 5 5 5 5 6 5 5 5 5 5 5 5 ;.",
";.5 5 5 5 5 8 ^ -.-.-.-.J 4 5 5 5 5 5 5 5 5 h %.-.-.-.Z 4 5 5 5 5 5 5 5 5 8 _ -.-.-. .t 5 5 5 5 5 5 5 5 5 5 5 5 5 5 5 5 5 5 5 ;.",
";.5 5 5 5 5 r | -.-.-.-.b 4 5 5 5 5 5 5 5 5 j $.-.-.-.V 4 5 5 5 5 5 5 4 4 k #.-.-.-.^ 8 5 5 5 5 5 5 5 5 5 5 5 5 5 5 5 5 5 5 5 ;.",
";.5 5 5 5 5 y X.-.-.-.=.k 4 5 5 5 5 5 5 5 4 h $.-.-.-.Z 4 5 5 5 5 5 5 r z | -.-.-.-.V 4 5 5 5 5 5 5 5 5 5 5 5 5 5 5 5 5 5 5 5 ;.",
";.5 5 5 5 5 a +.-.-.-.$.h 4 5 5 5 5 5 5 5 4 h %.-.-.-.| Q Q Q Q Q Q ! } $.-.-.-.-...a 5 5 6 5 5 5 5 5 5 5 5 5 5 5 5 5 5 5 5 5 ;.",
";.5 5 5 5 4 a @.-.-.-.#.s 5 5 5 5 5 5 5 5 5 h $.-.-.-.-.-.-.-.-.-.-.-.-.-.-.-.-.%.b 4 5 5 5 5 5 5 5 5 6 5 5 5 5 6 5 5 5 5 5 6 ;.",
";.5 5 5 5 5 a +.-.-.-.$.d 4 5 5 5 5 5 5 7 4 h %.-.-.-.-.-.-.-.-.-.-.-.-.-.-.-.o.b 6 5 5 5 5 5 5 5 5 5 5 5 5 5 5 5 5 5 6 5 5 5 ;.",
";.5 5 5 5 5 u o.-.-.-.*.k 4 5 5 5 5 5 5 5 4 h %.-.-.-.-.-.-.-.-.-.-.-.-.=.| J a 5 5 5 5 5 5 5 5 5 5 5 5 5 5 5 5 5 5 5 5 5 5 5 ;.",
";.5 5 5 5 5 t  .-.-.-.=.c 4 5 5 8 5 5 5 5 4 h %.-.-.-.) V C V L @.-.-.-.=.J 4 4 5 5 6 7 . . 5 5 5 5 5 5 5 5 5 5 5 5 5 5 5 5 5 ;.",
";.5 5 5 5 5 e _ -.-.-.-.N 4 5 5 5 5 5 5 5 4 h %.-.-.-.V 3 4 4 4 M %.-.-.-.$.n 5 5 5 5 4 + ; . 5 5 5 5 5 5 5 5 5 5 5 5 5 5 5 5 ;.",
";.5 5 5 5 5 5 T -.-.-.-.Y 5 5 5 5 5 5 5 5 4 h %.-.-.-.V 4 5 5 5 5 Z =.-.-.-.#.c 4 5 5 7 + $ * . 5 5 5 5 5 5 5 5 5 5 5 5 5 5 5 ;.",
";.5 5 5 5 5 4 V -.-.-.-.} r 5 5 5 5 5 5 5 4 h %.-.-.-.C 4 5 5 5 5 8 I =.-.-.-.+.z 4 5 7 + # $ : 6 5 5 5 5 5 5 5 5 5 5 5 5 5 5 ;.",
";.;.5 5 5 5 4 z =.-.-.-.$.h 5 5 5 5 5 5 5 5 h %.-.-.-.V 4 5 5 5 5 5 r W -.-.-.-...h 4 7 + # $ > t s 4 5 5 5 5 5 5 5 5 5 5 6 ;.;.",
";.;.5 5 5 5 5 y ..-.-.-.-.J 4 7 5 5 5 5 5 4 h %.-.-.-.C 4 5 5 5 5 5 5 y _ -.-.-.-.| d 3 + , $ = p _ k 4 5 5 5 5 5 5 5 5 5 5 ;.;.",
";.;.5 5 5 5 5 5 Y -.-.-.-.| t 4 5 5 5 5 5 4 h %.-.-.-.C 4 5 5 5 5 5 5 4 s | -.-.-.-.} u   # $ = p +.X.j 5 5 5 5 5 6 5 5 5 5 ;.;.",
";.;.5 5 5 5 5 4 c =.-.-.-.-.m 4 5 5 5 5 5 4 h %.-.-.-.V 4 5 5 5 5 5 5 5 4 h X.-.-.-.-.~ @ # $ = s +.-.E 5 5 5 5 5 5 5 5 5 5 ;.;.",
";.;.;.5 5 5 5 5 t } -.-.-.-.} t 5 5 5 5 5 5 u V J C J k 4 5 5 5 5 5 5 5 5 4 x @.-.-.-.-.H < # = p +.-.Q 6 9 5 5 5 5 5 5 6 ;.;.;.",
";.;.;.5 5 5 5 5 4 N =.-.-.-.-.J 4 5 5 5 5 5 4 4 4 4 4 5 5 5 5 5 5 5 5 5 5 5 4 b $.-.-.-.-.G , & p +.-.Q 0 - . 5 5 5 5 5 5 ;.;.;.",
";.;.;.;.5 5 5 5 4 u | -.-.-.-.@.k 4 5 5 5 5 5 5 5 5 5 5 5 5 5 5 5 5 5 5 5 5 5 5 B *.-.-.-.&.F > p +.-.W q ; * w 5 5 5 5 ;.;.;.;.",
";.;.;.;.5 5 5 5 5 4 b =.-.-.-.-.} u 4 5 5 5 5 5 5 5 5 5 5 5 5 5 5 5 5 5 5 5 5 5 8 P =.-.-.-.&.A p +.-.Q q ; % o 7 5 5 5 ;.;.;.;.",
";.;.;.;.;.5 5 5 5 5 8 ! -.-.-.-.-.Q r 4 5 5 5 5 5 5 5 5 5 5 5 5 5 5 5 5 5 5 5 5 4 e T -.-.-.-.%.J @.-.Q q ; % o 5 5 5 5 ;.;.;.;.",
";.;.;.;.;.5 5 5 5 5 5 d X.-.-.-.-.-.T t 4 5 5 5 5 5 5 5 5 5 5 5 5 5 5 5 5 5 5 5 5 4 y ^ -.-.-.-.=.=.-.Q q ; % o 7 5 5 ;.;.;.;.;.",
";.;.;.;.;.;.5 5 5 5 5 5 b %.-.-.-.-.-.Q y 4 5 5 5 5 5 5 5 5 5 5 5 5 6 5 5 5 5 5 5 5 4 a [ -.-.-.-.-.-.Q 0 ; % o 5 5 ;.;.;.;.;.;.",
";.;.;.;.;.;.5 5 5 5 5 5 5 J =.-.-.-.-.-.} l 4 4 5 5 5 5 5 5 5 5 5 6 4 5 5 5 5 5 5 5 4 3 v %.-.-.-.-.-.Q 0 & % o 6 5 ;.;.;.;.;.;.",
";.;.;.;.;.;.;.5 5 5 5 5 5 8 I =.-.-.-.-.-.@.K u 4 5 5 5 5 5 5 5 6 5 5 5 5 5 5 6 4 4 t C o.O.%.-.-.-.-...f & $ o 7 ;.;.;.;.;.;.;.",
";.;.;.;.;.;.;.;.5 5 5 5 5 5 8 P =.-.-.-.-.-.-.| B u 5 4 4 5 5 5 5 5 5 5 5 4 4 4 i N | -.-.O.] =.-.-.-.-.[ 2 # O ;.;.;.;.;.;.;.;.",
";.;.;.;.;.;.;.;.;.5 5 5 5 5 5 6 V $.-.-.-.-.-.-.=.X.U c a r 5 5 4 4 4 5 e a c I o.-.-.-.-.*.D { -.-.-.-.-./ 1 ;.;.;.;.;.;.;.;.;.",
";.;.;.;.;.;.;.;.;.;.5 5 5 5 5 5 5 v ..-.-.-.-.-.-.-.-.=.+.} Q I P P U ! } +.-.-.-.-.-.-.-.-.{ S R =.-.-.-.=.;.;.;.;.;.;.;.;.;.;.",
";.;.;.;.;.;.;.;.;.;.;.5 5 5 5 5 5 4 a T %.-.-.-.-.-.-.-.-.-.-.-.-.-.-.-.-.-.-.-.-.-.-.-.-.-.( g 8 Y -.-.-.;.;.;.;.;.;.;.;.;.;.;.",
";.;.;.;.;.;.;.;.;.;.;.;.5 5 5 5 5 5 4 8 x _ =.-.-.-.-.-.-.-.-.-.-.-.-.-.-.-.-.-.-.-.-.-.@.P i 4 5 t ! -.;.;.;.;.;.;.;.;.;.;.;.;.",
";.;.;.;.;.;.;.;.;.;.;.;.;.5 5 5 5 5 5 5 4 r c Q @.-.-.-.-.-.-.-.-.-.-.-.-.-.-.-.-.=. .L s 5 5 5 5 5 a ;.;.;.;.;.;.;.;.;.;.;.;.;.",
";.;.;.;.;.;.;.;.;.;.;.;.;.;.;.5 5 5 5 5 5 4 4 5 s M Q  .#.=.-.-.-.-.-.-.=.$.o._ L x y 4 4 5 5 5 5 5 ;.;.;.;.;.;.;.;.;.;.;.;.;.;.",
";.;.;.;.;.;.;.;.;.;.;.;.;.;.;.;.5 5 5 5 5 5 5 5 4 4 5 t d x n V Z Z B m c h y 8 4 4 5 5 5 5 5 5 ;.;.;.;.;.;.;.;.;.;.;.;.;.;.;.;.",
";.;.;.;.;.;.;.;.;.;.;.;.;.;.;.;.;.;.5 5 5 5 5 5 5 5 5 5 5 4 4 4 4 4 4 4 4 4 5 5 5 5 5 5 5 5 ;.;.;.;.;.;.;.;.;.;.;.;.;.;.;.;.;.;.",
";.;.;.;.;.;.;.;.;.;.;.;.;.;.;.;.;.;.;.;.5 5 5 5 5 5 5 5 5 5 5 5 5 5 5 5 5 5 5 5 5 5 5 5 ;.;.;.;.;.;.;.;.;.;.;.;.;.;.;.;.;.;.;.;.",
";.;.;.;.;.;.;.;.;.;.;.;.;.;.;.;.;.;.;.;.;.;.;.5 5 5 5 5 5 5 5 5 5 5 5 5 5 5 5 5 5 ;.;.;.;.;.;.;.;.;.;.;.;.;.;.;.;.;.;.;.;.;.;.;.",
";.;.;.;.;.;.;.;.;.;.;.;.;.;.;.;.;.;.;.;.;.;.;.;.;.;.;.5 5 5 5 5 5 5 5 5 5 ;.;.;.;.;.;.;.;.;.;.;.;.;.;.;.;.;.;.;.;.;.;.;.;.;.;.;.",
";.;.;.;.;.;.;.;.;.;.;.;.;.;.;.;.;.;.;.;.;.;.;.;.;.;.;.;.;.;.;.;.;.;.;.;.;.;.;.;.;.;.;.;.;.;.;.;.;.;.;.;.;.;.;.;.;.;.;.;.;.;.;.;."
};
