<svg height="64pt" preserveAspectRatio="xMidYMid meet" viewBox="0 0 64 64" width="64pt" xmlns="http://www.w3.org/2000/svg"><g transform="matrix(.1 0 0 -.1 0 64)"><path d="m203 609c-63-24-132-90-163-156-33-67-34-188-4-254 53-115 156-182 284-183 63-1 84 4 133 28 50 24 57 31 45 42-11 12-20 10-58-8-102-51-248-14-314 80-42 59-54 96-55 167-1 78 31 147 92 202 57 49 116 68 198 60 88-8 170-67 128-93-6-3-35 6-65 21-63 32-126 31-190-2-47-24-100-98-109-153-15-89 35-189 116-230 48-25 132-26 176-2l32 17-65 73c-76 83-101 91-106 35-2-31-7-39-25-41-23-3-23-2-23 122v126h59c97 0 140-26 141-84 0-19-10-40-27-58l-27-29 57-57 57-57v39c0 33 2 37 15 26 9-8 15-30 15-60s6-52 15-60c12-10 19-4 43 34 80 125 64 284-37 385-62 62-113 84-206 88-63 2-91-1-132-18z"/><path d="m280 375v-36l48 3c45 3 47 4 47 33s-2 30-47 33l-48 3z"/></g></svg>